<svg fill="none" height="80" viewBox="0 0 80 80" width="80" xmlns="http://www.w3.org/2000/svg">
	<mask height="68" id="mask0_120_70748" maskUnits="userSpaceOnUse" style="mask-type:alpha" width="68" x="6" y="6">
		<path clip-rule="evenodd" d="M40.0001 6.66675C21.6001 6.66675 6.66675 21.6001 6.66675 40.0001C6.66675 58.4001 21.6001 73.3334 40.0001 73.3334C58.4001 73.3334 73.3334 58.4001 73.3334 40.0001C73.3334 21.6001 58.4001 6.66675 40.0001 6.66675ZM40.0001 43.3334C38.1667 43.3334 36.6667 41.8334 36.6667 40.0001V26.6667C36.6667 24.8334 38.1667 23.3334 40.0001 23.3334C41.8334 23.3334 43.3334 24.8334 43.3334 26.6667V40.0001C43.3334 41.8334 41.8334 43.3334 40.0001 43.3334ZM36.6667 50.0001V56.6668H43.3334V50.0001H36.6667Z" fill="black" fill-rule="evenodd" />
	</mask>
	<g mask="url(#mask0_120_70748)">
		<rect fill="#FFAB00" height="80" width="80" />
	</g>
</svg>