<svg fill="none" height="341" viewBox="0 0 340 341" width="340" xmlns="http://www.w3.org/2000/svg">
	<path clip-rule="evenodd" d="M100 216.004C155.228 216.004 200 171.232 200 116.004C200 60.7754 155.228 16.0039 100 16.0039C44.7715 16.0039 0 60.7754 0 116.004C0 171.232 44.7715 216.004 100 216.004Z" fill="#0BA2D0" fill-rule="evenodd" />
	<path clip-rule="evenodd" d="M100 216.004C155.228 216.004 200 171.232 200 116.004C200 60.7754 155.228 16.0039 100 16.0039C44.7715 16.0039 0 60.7754 0 116.004C0 171.232 44.7715 216.004 100 216.004Z" fill="url(#paint0_linear_6820_288139)" fill-rule="evenodd" />
	<path d="M219.653 120.221V99.9205C219.653 99.0233 219.297 98.1624 218.662 97.528C218.028 96.8936 217.167 96.5371 216.27 96.5371H141.834C139.966 96.5371 138.451 98.0521 138.451 99.9205V120.221C138.451 121.118 138.807 121.979 139.442 122.614C140.076 123.248 140.937 123.605 141.834 123.605H216.27C217.167 123.605 218.028 123.248 218.662 122.614C219.297 121.979 219.653 121.118 219.653 120.221ZM212.886 116.838H145.218V103.304H212.886V116.838Z" fill="black" />
	<path d="M124.917 137.137V177.739C124.917 178.636 125.274 179.497 125.908 180.131C126.543 180.766 127.404 181.122 128.301 181.122H168.902C169.799 181.122 170.66 180.766 171.295 180.131C171.929 179.497 172.286 178.636 172.286 177.739V158.257L165.519 165.023V174.355H131.684V140.521H161.317L168.084 133.754H128.302C126.434 133.754 124.919 135.269 124.919 137.137H124.917Z" fill="black" />
	<path d="M176.659 134.742L151.984 159.418L144.226 151.661L139.443 156.445L149.593 166.595H149.592C150.913 167.915 153.055 167.915 154.377 166.595L181.444 139.527L176.659 134.742Z" fill="black" />
	<path d="M124.917 235.256C124.917 236.153 125.274 237.014 125.908 237.649C126.543 238.283 127.404 238.64 128.301 238.64H168.902C169.799 238.64 170.66 238.283 171.295 237.649C171.929 237.014 172.286 236.153 172.286 235.256V215.774L165.519 222.541V231.873H131.684V198.038H161.317L168.084 191.271H128.302C126.434 191.271 124.919 192.786 124.919 194.655L124.917 235.256Z" fill="black" />
	<path d="M144.227 209.177L139.444 213.961L149.594 224.111L149.593 224.113C150.914 225.433 153.056 225.433 154.378 224.113L181.445 197.045L176.662 192.262L151.985 216.936L144.227 209.177Z" fill="black" />
	<path d="M189.203 157.438H233.187V164.204H189.203V157.438Z" fill="black" />
	<path d="M189.203 140.521H233.187V147.288H189.203V140.521Z" fill="black" />
	<path d="M189.203 198.039H209.503V204.806H189.203V198.039Z" fill="black" />
	<path d="M189.203 214.955H209.503V221.722H189.203V214.955Z" fill="black" />
	<path d="M114.767 279.241V89.769H243.337V162.024C245.62 161.225 247.876 160.353 250.104 159.408V86.3834C250.104 85.4862 249.748 84.6252 249.113 83.9909C248.479 83.3565 247.618 83 246.721 83H111.383C109.515 83 108 84.515 108 86.3834V282.623C108 283.52 108.356 284.381 108.991 285.015C109.625 285.65 110.486 286.006 111.383 286.006H246.721C247.077 285.993 247.429 285.922 247.763 285.796C244.57 283.822 241.514 281.632 238.62 279.239L114.767 279.241Z" fill="black" />
	<path d="M307.99 174.374C293.027 172.754 278.514 168.287 265.227 161.217C264.233 160.688 263.04 160.688 262.046 161.217C248.76 168.287 234.246 172.754 219.283 174.374C217.568 174.563 216.269 176.012 216.269 177.738V217.813C216.362 232.424 220.789 246.678 228.99 258.774C237.19 270.867 248.795 280.255 262.334 285.748C263.167 286.096 264.106 286.096 264.938 285.748C278.478 280.255 290.083 270.867 298.283 258.774C306.483 246.68 310.911 232.426 311.004 217.813V177.738C311.004 176.012 309.705 174.563 307.989 174.374H307.99ZM304.238 217.814C304.147 230.848 300.258 243.572 293.047 254.429C285.836 265.286 275.615 273.805 263.637 278.942C251.659 273.805 241.438 265.286 234.226 254.429C227.016 243.572 223.126 230.848 223.036 217.814V180.731C237.198 178.85 250.931 174.551 263.637 168.023C276.343 174.553 290.076 178.852 304.238 180.731V217.814Z" fill="black" />
	<path d="M235.581 215.946L230.797 220.729L251.098 241.03L251.096 241.031C252.418 242.351 254.56 242.351 255.882 241.031L296.483 200.43L291.699 195.646L253.489 233.855L235.581 215.946Z" fill="black" />
	<path d="M185.819 262.324H209.503V269.091H185.819V262.324Z" fill="black" />
	<path d="M155.368 248.791H209.503V255.558H155.368V248.791Z" fill="black" />
	<defs>
		<linearGradient gradientUnits="userSpaceOnUse" id="paint0_linear_6820_288139" x1="100" x2="100" y1="16.0039" y2="216.004">
			<stop stop-color="white" stop-opacity="0.2" />
			<stop offset="0.666667" stop-color="white" stop-opacity="0.9" />
			<stop offset="1" stop-color="white" />
		</linearGradient>
	</defs>
</svg>