<svg fill="none" height="341" viewBox="0 0 340 341" width="340" xmlns="http://www.w3.org/2000/svg">
	<path clip-rule="evenodd" d="M100 216.004C155.228 216.004 200 171.232 200 116.004C200 60.7754 155.228 16.0039 100 16.0039C44.7715 16.0039 0 60.7754 0 116.004C0 171.232 44.7715 216.004 100 216.004Z" fill="#FFAB00" fill-rule="evenodd" />
	<path clip-rule="evenodd" d="M100 216.004C155.228 216.004 200 171.232 200 116.004C200 60.7754 155.228 16.0039 100 16.0039C44.7715 16.0039 0 60.7754 0 116.004C0 171.232 44.7715 216.004 100 216.004Z" fill="url(#paint0_linear_6820_288140)" fill-rule="evenodd" />
	<path clip-rule="evenodd" d="M144.321 124.273V112.792C144.321 97.9973 156.298 86.0039 171.071 86.0039H216.929C231.702 86.0039 243.679 97.9973 243.679 112.792V124.273H289.536C295.868 124.273 301 129.412 301 135.754V273.523C301 279.865 295.868 285.004 289.536 285.004H98.4643C92.1316 285.004 87 279.865 87 273.523V135.754C87 129.412 92.1316 124.273 98.4643 124.273H144.321ZM289.536 131.927H98.4643C96.3557 131.927 94.6429 133.642 94.6429 135.754V153.101C115.664 170.591 136.672 182.603 157.699 189.059V169.745C157.699 167.632 159.411 165.918 161.52 165.918C172.309 165.918 182.615 161.452 189.993 153.572C190.754 152.765 191.216 152.271 191.216 152.271C191.938 151.498 192.948 151.062 194.002 151.062C195.056 151.062 196.066 151.498 196.788 152.271C196.788 152.271 197.25 152.765 198.011 153.572C205.39 161.453 215.695 165.918 226.484 165.918C228.593 165.918 230.305 167.632 230.305 169.745V189.117C238.016 186.755 245.724 183.643 253.437 179.786C255.321 178.841 257.622 179.606 258.562 181.498C259.505 183.384 258.741 185.689 256.852 186.63C248.007 191.06 239.156 194.55 230.305 197.099V200.318C230.305 217.792 219.529 233.443 203.223 239.662C198.695 241.389 195.361 242.659 195.361 242.659C194.486 242.992 193.517 242.992 192.642 242.659C192.642 242.659 189.309 241.389 184.781 239.662C181.046 238.239 177.604 236.318 174.512 233.998C172.823 232.733 172.484 230.329 173.748 228.641C175.012 226.949 177.409 226.609 179.098 227.875C181.628 229.773 184.445 231.344 187.498 232.507L194.002 234.986L200.505 232.507C213.846 227.424 222.662 214.611 222.662 200.318V173.415C211.909 172.53 201.774 167.943 194.002 160.403C186.233 167.943 176.094 172.53 165.341 173.415V200.318C165.341 206.882 167.199 213.131 170.5 218.462C171.612 220.255 171.057 222.618 169.264 223.73C167.473 224.844 165.116 224.289 164.003 222.495C159.968 215.978 157.698 208.339 157.698 200.318V197.043C136.687 190.964 115.658 179.615 94.6418 162.956V273.521C94.6418 275.633 96.3546 277.348 98.4632 277.348H289.535C291.643 277.348 293.356 275.633 293.356 273.521V162.973C285.09 169.552 276.825 175.296 268.56 180.213C266.744 181.293 264.397 180.697 263.321 178.879C262.242 177.064 262.843 174.714 264.653 173.636C274.222 167.941 283.791 161.099 293.356 153.104V135.753C293.356 133.641 291.644 131.926 289.535 131.926L289.536 131.927ZM215.02 182.127C215.02 180.012 213.307 178.301 211.199 178.301H211.195C206.012 178.301 201.072 176.112 197.583 172.278C197.117 171.764 196.826 171.446 196.826 171.446C196.104 170.652 195.075 170.195 194.002 170.195C192.929 170.195 191.9 170.652 191.179 171.446C191.179 171.446 190.887 171.764 190.421 172.278C186.933 176.112 181.992 178.301 176.809 178.301H176.806C174.697 178.301 172.984 180.012 172.984 182.127V194.7C172.984 207.428 180.769 218.859 192.603 223.508H192.607C193.506 223.861 194.499 223.861 195.398 223.508H195.401C207.236 218.859 215.02 207.428 215.02 194.7L215.02 182.127ZM194.002 179.464C190.23 182.782 185.583 184.936 180.627 185.672V194.7C180.627 203.77 185.882 211.967 194.002 215.782C202.123 211.967 207.377 203.77 207.377 194.7V185.672C202.421 184.936 197.774 182.782 194.002 179.464ZM236.038 124.273V112.792C236.038 102.226 227.482 93.6578 216.931 93.6578H171.074C160.522 93.6578 151.966 102.226 151.966 112.792V124.273H159.609V112.792C159.609 106.451 164.741 101.312 171.074 101.312H216.931C223.263 101.312 228.395 106.451 228.395 112.792V124.273H236.038ZM220.752 124.273V112.792C220.752 110.681 219.039 108.966 216.931 108.966H171.074C168.965 108.966 167.252 110.681 167.252 112.792V124.273H220.752Z" fill="black" fill-rule="evenodd" />
	<defs>
		<linearGradient gradientUnits="userSpaceOnUse" id="paint0_linear_6820_288140" x1="100" x2="100" y1="16.0039" y2="216.004">
			<stop stop-color="white" stop-opacity="0.2" />
			<stop offset="0.666667" stop-color="white" stop-opacity="0.9" />
			<stop offset="1" stop-color="white" />
		</linearGradient>
	</defs>
</svg>