<svg fill="none" height="341" viewBox="0 0 340 341" width="340" xmlns="http://www.w3.org/2000/svg">
	<path clip-rule="evenodd" d="M100 216.004C155.228 216.004 200 171.232 200 116.004C200 60.7754 155.228 16.0039 100 16.0039C44.7715 16.0039 0 60.7754 0 116.004C0 171.232 44.7715 216.004 100 216.004Z" fill="#08AA72" fill-rule="evenodd" />
	<path clip-rule="evenodd" d="M100 216.004C155.228 216.004 200 171.232 200 116.004C200 60.7754 155.228 16.0039 100 16.0039C44.7715 16.0039 0 60.7754 0 116.004C0 171.232 44.7715 216.004 100 216.004Z" fill="url(#paint0_linear_6820_288141)" fill-rule="evenodd" />
	<path d="M276.999 264.953V233.902H270.087V247.703H259.719V168.351C259.719 167.436 259.355 166.558 258.707 165.911C258.059 165.265 257.18 164.901 256.263 164.901H214.792C212.883 164.901 211.336 166.446 211.336 168.351V247.703H194.056V254.603H270.087V261.503H194.056V268.403H273.543C274.46 268.403 275.339 268.04 275.987 267.393C276.635 266.746 276.999 265.868 276.999 264.953ZM252.807 247.703H218.248V171.801H252.807V247.703ZM97.2882 199.402H90.3762V185.601H97.2882V199.402ZM197.512 227.002V171.801H176.776V164.901H200.968C201.884 164.901 202.764 165.265 203.411 165.911C204.059 166.558 204.424 167.436 204.424 168.351V230.452C204.424 231.367 204.059 232.245 203.411 232.892C202.764 233.539 201.884 233.902 200.968 233.902H194.056V227.002H197.512ZM266.529 91.6137C266.144 90.0782 264.762 89 263.176 89H90.3769C88.7909 89 87.4085 90.0782 87.0243 91.6137C87.0243 91.6137 76.6611 132.999 76.6563 133.015C76.59 133.278 76.556 133.549 76.553 133.82V206.303H83.4649V154.544C86.4519 156.793 90.0913 158.008 93.8329 158.003V151.103C91.0835 151.1 88.4483 150.008 86.5042 148.069C84.5618 146.128 83.4679 143.498 83.4648 140.753V137.303H97.2887V130.403H84.4352L93.0752 95.9021H110.489L105.976 122.936L112.794 124.069L117.497 95.9017H135.005L132.726 123.216L139.614 123.789L141.94 95.9014H159.496V120.052H166.408V95.9014H187.144V130.402H173.32V137.302H187.144V140.752C187.143 144.449 185.168 147.865 181.96 149.715C178.754 151.563 174.803 151.566 171.596 149.719L168.135 155.692H168.133C171.795 157.802 176.102 158.498 180.243 157.651C184.382 156.802 188.068 154.467 190.6 151.09C193.859 155.441 198.983 158.002 204.424 158.002C209.866 158.002 214.99 155.441 218.248 151.09C221.507 155.441 226.631 158.002 232.072 158.002C237.514 158.002 242.638 155.441 245.896 151.09C248.641 154.757 252.735 157.181 257.275 157.828C261.814 158.477 266.424 157.294 270.088 154.543V227.002H277V133.819C276.998 133.548 276.964 133.277 276.898 133.013L266.529 91.6137ZM194.056 95.9001H211.612L214.492 130.401H194.056V95.9001ZM214.792 140.751C214.792 144.449 212.815 147.865 209.608 149.715C206.4 151.563 202.447 151.563 199.24 149.715C196.032 147.865 194.056 144.449 194.056 140.751V137.301H214.792V140.751ZM218.547 95.9001H236.055L241.814 130.401H221.427L218.547 95.9001ZM242.439 140.751C242.439 144.449 240.463 147.865 237.255 149.715C234.048 151.563 230.095 151.563 226.887 149.715C223.68 147.865 221.703 144.449 221.703 140.751V137.301H242.439V140.751ZM245.943 113.15L243.064 95.9001H260.478L269.118 130.401H248.824L245.943 113.15ZM270.087 140.751C270.087 144.449 268.111 147.865 264.903 149.715C261.696 151.563 257.743 151.563 254.535 149.715C251.328 147.865 249.351 144.449 249.351 140.751V137.301H270.087V140.751ZM245.895 220.103H238.983V199.402H245.895V220.103ZM83.7407 224.239L76.9678 222.866C76.6916 224.227 76.5527 225.613 76.5527 227.003V278.754C76.5574 283.327 78.3795 287.712 81.6194 290.946C84.8593 294.18 89.2518 295.999 93.8326 296.004H169.864C174.445 295.999 178.838 294.18 182.077 290.946C185.317 287.712 187.139 283.327 187.144 278.754V227.003C187.138 221.515 184.952 216.253 181.064 212.372C177.175 208.491 171.905 206.308 166.408 206.302H149.128V204.523C156.738 199.422 161.72 191.243 162.755 182.152H162.952C166.657 182.152 170.079 180.179 171.932 176.977C173.783 173.775 173.783 169.829 171.932 166.626C170.079 163.424 166.657 161.451 162.952 161.451C162.952 161.451 162.935 150.309 162.909 149.915C165.165 147.394 166.411 144.132 166.408 140.751V130.401C166.408 129.486 166.044 128.608 165.396 127.961C164.748 127.314 163.869 126.951 162.952 126.951H118.025C113.444 126.955 109.051 128.774 105.811 132.009C102.571 135.243 100.749 139.628 100.745 144.201V161.451C97.0402 161.451 93.6182 163.424 91.7654 166.626C89.914 169.829 89.914 173.775 91.7654 176.977C93.6183 180.179 97.0402 182.152 100.745 182.152H100.942C101.977 191.244 106.959 199.422 114.569 204.523V206.302H97.2886C90.7562 206.276 84.6002 209.347 80.6999 214.579L86.2295 218.722C88.8292 215.235 92.9333 213.187 97.2886 213.202H114.569V227.003C114.569 228.065 115.059 229.068 115.897 229.723C116.736 230.376 117.83 230.607 118.862 230.349L128.393 227.971V255.301L107.657 251.701V230.452H100.745V237.352H83.4647V227.002C83.4647 226.073 83.5573 225.148 83.7409 224.239L83.7407 224.239ZM162.952 168.352C164.86 168.352 166.408 169.897 166.408 171.802C166.408 173.708 164.86 175.252 162.952 175.252V168.352ZM100.744 175.252C98.8356 175.252 97.2881 173.708 97.2881 171.802C97.2881 169.897 98.8356 168.352 100.744 168.352V175.252ZM169.864 289.105H163.353L146.937 285.25L159.897 282.205H179.639C178.923 284.221 177.598 285.967 175.848 287.203C174.097 288.438 172.007 289.103 169.864 289.105L169.864 289.105ZM180.232 251.154H162.952V244.254H180.232V251.154ZM166.408 213.203C170.074 213.208 173.587 214.663 176.179 217.249C178.769 219.837 180.227 223.344 180.232 227.003V237.354H162.952V230.454H156.04V251.702L135.304 255.302V227.973L144.834 230.351C145.866 230.608 146.96 230.377 147.799 229.724C148.637 229.069 149.128 228.067 149.128 227.004V213.204L166.408 213.203ZM138.607 221.684L142.216 218.083V222.585L138.607 221.684ZM156.04 155.896L155.093 154.319C155.412 154.26 155.728 154.194 156.04 154.114V155.896ZM107.656 151.101V144.201C107.659 141.456 108.753 138.826 110.696 136.885C112.639 134.946 115.275 133.854 118.024 133.851H159.496V140.751C159.494 142.581 158.765 144.333 157.469 145.627C156.173 146.921 154.417 147.649 152.584 147.651H114.568C113.354 147.651 112.229 148.287 111.604 149.327L107.656 155.896L107.656 151.101ZM107.656 178.702V169.307L116.524 154.551H147.172L156.04 169.307V178.702C156.04 187.33 151.428 195.302 143.944 199.616C136.46 203.93 127.236 203.93 119.752 199.616C112.268 195.302 107.656 187.33 107.656 178.702ZM121.48 222.583V218.081L125.089 221.683L121.48 222.583ZM121.48 208.322V207.977C128.188 210.343 135.508 210.343 142.216 207.977V208.322L131.848 218.672L121.48 208.322ZM159.794 258.05H180.232V275.3H159.496C159.229 275.3 158.964 275.331 158.704 275.393L100.344 289.101H93.833C91.0837 289.098 88.4484 288.006 86.5043 286.067C84.5619 284.126 83.468 281.495 83.4649 278.751V271.302L159.794 258.05ZM103.902 258.05L111.678 259.399L83.4634 264.299V258.05L103.902 258.05ZM100.743 244.25V251.15H83.4634V244.25H100.743ZM121.479 237.35V244.25H114.567V237.35H121.479ZM131.847 192.195C127.473 192.194 123.198 190.897 119.562 188.471L123.396 182.731L123.397 182.729C125.897 184.4 128.839 185.292 131.847 185.292C134.856 185.292 137.798 184.4 140.298 182.729L144.132 188.469L144.133 188.471C140.497 190.897 136.222 192.194 131.848 192.195H131.847ZM119.751 175.25C117.654 175.25 115.764 173.988 114.962 172.055C114.16 170.121 114.603 167.895 116.085 166.415C117.568 164.935 119.797 164.493 121.735 165.294C123.672 166.095 124.935 167.981 124.935 170.074C124.932 172.932 122.613 175.246 119.751 175.25L119.751 175.25ZM138.759 170.075C138.759 167.981 140.023 166.095 141.959 165.294C143.897 164.493 146.126 164.935 147.609 166.415C149.092 167.895 149.534 170.121 148.732 172.055C147.93 173.988 146.04 175.25 143.943 175.25C141.081 175.247 138.762 172.932 138.759 170.075L138.759 170.075Z" fill="black" />
	<defs>
		<linearGradient gradientUnits="userSpaceOnUse" id="paint0_linear_6820_288141" x1="100" x2="100" y1="16.0039" y2="216.004">
			<stop stop-color="white" stop-opacity="0.2" />
			<stop offset="0.666667" stop-color="white" stop-opacity="0.9" />
			<stop offset="1" stop-color="white" />
		</linearGradient>
	</defs>
</svg>