<svg fill="none" height="341" viewBox="0 0 340 341" width="340" xmlns="http://www.w3.org/2000/svg">
	<path clip-rule="evenodd" d="M100 216.004C155.228 216.004 200 171.232 200 116.004C200 60.7754 155.228 16.0039 100 16.0039C44.7715 16.0039 0 60.7754 0 116.004C0 171.232 44.7715 216.004 100 216.004Z" fill="#9A4DFF" fill-rule="evenodd" />
	<path clip-rule="evenodd" d="M100 216.004C155.228 216.004 200 171.232 200 116.004C200 60.7754 155.228 16.0039 100 16.0039C44.7715 16.0039 0 60.7754 0 116.004C0 171.232 44.7715 216.004 100 216.004Z" fill="url(#paint0_linear_6820_288138)" fill-rule="evenodd" />
	<path d="M228.033 160.137H234.5V121.337H266.833V166.604H273.3V118.104C273.3 117.247 272.959 116.424 272.353 115.817C271.747 115.211 270.924 114.871 270.067 114.871H266.833V105.171C266.833 104.313 266.493 103.49 265.886 102.884C265.28 102.278 264.457 101.937 263.6 101.937H234.5V92.2372C234.5 91.3798 234.159 90.5571 233.553 89.9508C232.947 89.3446 232.124 89.0039 231.267 89.0039H160.133V95.4706H228.033V160.137ZM234.5 108.404H260.367V114.871H234.5V108.404ZM105.167 121.337H137.5V163.371H143.967V95.4706H153.667V89.0039H140.733C138.948 89.0039 137.5 90.4517 137.5 92.2372V101.937H108.4C106.615 101.937 105.167 103.385 105.167 105.171V114.871H101.933C100.148 114.871 98.7001 116.318 98.7001 118.104V169.837H105.167V121.337ZM111.633 108.404H137.5V114.871H111.633V108.404ZM195.7 105.171C195.7 104.313 195.359 103.49 194.753 102.884C194.147 102.278 193.324 101.937 192.467 101.937H179.533C177.748 101.937 176.3 103.385 176.3 105.171V118.104C176.3 118.961 176.641 119.784 177.247 120.39C177.853 120.997 178.676 121.337 179.533 121.337H192.467C193.324 121.337 194.147 120.997 194.753 120.39C195.359 119.784 195.7 118.961 195.7 118.104V105.171ZM189.233 114.871H182.767V108.404H189.233V114.871ZM221.567 105.171C221.567 104.313 221.226 103.49 220.62 102.884C220.013 102.278 219.191 101.937 218.333 101.937H205.4C203.614 101.937 202.167 103.385 202.167 105.171V118.104C202.167 118.961 202.507 119.784 203.114 120.39C203.72 120.997 204.543 121.337 205.4 121.337H218.333C219.191 121.337 220.013 120.997 220.62 120.39C221.226 119.784 221.567 118.961 221.567 118.104V105.171ZM215.1 114.871H208.633V108.404H215.1V114.871ZM169.833 105.171C169.833 104.313 169.493 103.49 168.886 102.884C168.28 102.278 167.457 101.937 166.6 101.937H153.667C151.881 101.937 150.433 103.385 150.433 105.171V118.104C150.433 118.961 150.774 119.784 151.38 120.39C151.987 120.997 152.809 121.337 153.667 121.337H166.6C167.457 121.337 168.28 120.997 168.886 120.39C169.493 119.784 169.833 118.961 169.833 118.104V105.171ZM163.367 114.871H156.9V108.404H163.367V114.871ZM195.7 131.037C195.7 130.18 195.359 129.357 194.753 128.751C194.147 128.145 193.324 127.804 192.467 127.804H179.533C177.748 127.804 176.3 129.252 176.3 131.037V143.971C176.3 144.828 176.641 145.651 177.247 146.257C177.853 146.863 178.676 147.204 179.533 147.204H192.467C193.324 147.204 194.147 146.863 194.753 146.257C195.359 145.651 195.7 144.828 195.7 143.971V131.037ZM189.233 140.737H182.767V134.271H189.233V140.737ZM221.567 131.037C221.567 130.18 221.226 129.357 220.62 128.751C220.013 128.145 219.191 127.804 218.333 127.804H205.4C203.614 127.804 202.167 129.252 202.167 131.037V143.971C202.167 144.828 202.507 145.651 203.114 146.257C203.72 146.863 204.543 147.204 205.4 147.204H218.333C219.191 147.204 220.013 146.863 220.62 146.257C221.226 145.651 221.567 144.828 221.567 143.971V131.037ZM215.1 140.737H208.633V134.271H215.1V140.737ZM169.833 131.037C169.833 130.18 169.493 129.357 168.886 128.751C168.28 128.145 167.457 127.804 166.6 127.804H153.667C151.881 127.804 150.433 129.252 150.433 131.037V143.971C150.433 144.828 150.774 145.651 151.38 146.257C151.987 146.863 152.809 147.204 153.667 147.204H166.6C167.457 147.204 168.28 146.863 168.886 146.257C169.493 145.651 169.833 144.828 169.833 143.971V131.037ZM163.367 140.737H156.9V134.271H163.367V140.737ZM195.7 156.904V160.137H176.3V156.904C176.3 155.118 177.748 153.671 179.533 153.671H192.467C193.324 153.671 194.147 154.011 194.753 154.617C195.359 155.224 195.7 156.047 195.7 156.904ZM221.567 156.904V160.137H202.167V156.904C202.167 155.118 203.614 153.671 205.4 153.671H218.333C219.191 153.671 220.013 154.011 220.62 154.617C221.226 155.224 221.567 156.047 221.567 156.904ZM169.833 156.904V160.137H150.433V156.904C150.433 155.118 151.881 153.671 153.667 153.671H166.6C167.457 153.671 168.28 154.011 168.886 154.617C169.493 155.224 169.833 156.047 169.833 156.904ZM131.033 131.037C131.033 130.18 130.693 129.357 130.086 128.751C129.48 128.145 128.657 127.804 127.8 127.804H114.867C113.081 127.804 111.633 129.252 111.633 131.037V143.971C111.633 144.828 111.974 145.651 112.58 146.257C113.187 146.863 114.009 147.204 114.867 147.204H127.8C128.657 147.204 129.48 146.863 130.086 146.257C130.693 145.651 131.033 144.828 131.033 143.971V131.037ZM124.567 140.737H118.1V134.271H124.567V140.737ZM131.033 156.904V160.137H111.633V156.904C111.633 155.118 113.081 153.671 114.867 153.671H127.8C128.657 153.671 129.48 154.011 130.086 154.617C130.693 155.224 131.033 156.047 131.033 156.904ZM260.367 131.037C260.367 130.18 260.026 129.357 259.42 128.751C258.813 128.145 257.991 127.804 257.133 127.804H244.2C242.414 127.804 240.967 129.252 240.967 131.037V143.971C240.967 144.828 241.307 145.651 241.914 146.257C242.52 146.863 243.343 147.204 244.2 147.204H257.133C257.991 147.204 258.813 146.863 259.42 146.257C260.026 145.651 260.367 144.828 260.367 143.971V131.037ZM253.9 140.737H247.433V134.271H253.9V140.737ZM260.367 156.904V160.137H240.967V156.904C240.967 155.118 242.414 153.671 244.2 153.671H257.133C257.991 153.671 258.813 154.011 259.42 154.617C260.026 155.224 260.367 156.047 260.367 156.904ZM118.159 215.104H124.626C124.626 216.889 126.074 218.337 127.859 218.337C129.645 218.337 131.093 216.889 131.093 215.104H137.559C137.559 218.57 135.71 221.771 132.709 223.505C129.708 225.237 126.01 225.237 123.009 223.505C120.008 221.771 118.159 218.57 118.159 215.104ZM140.793 208.637H134.326V202.171H140.793V208.637ZM234.5 218.337H240.967C240.967 220.123 242.414 221.571 244.2 221.571C245.985 221.571 247.433 220.123 247.433 218.337H253.9C253.9 221.803 252.051 225.005 249.05 226.738C246.049 228.47 242.351 228.47 239.35 226.738C236.349 225.004 234.5 221.803 234.5 218.337ZM92.2334 283.004H279.767C280.624 283.004 281.447 282.663 282.053 282.057C282.659 281.451 283 280.628 283 279.771V260.371H276.533V276.537H270.067V253.904H263.6V260.371H253.9V266.837H263.6V276.537H247.433V254.799L255.73 240.971H266.833C269.405 240.973 271.871 241.997 273.69 243.814C275.507 245.633 276.53 248.098 276.533 250.671V253.904H283V250.671C282.996 246.385 281.291 242.275 278.26 239.244C275.229 236.213 271.119 234.508 266.833 234.504H261.343C266.927 229.603 270.129 222.533 270.127 215.104V206.107C272.151 204.268 273.304 201.658 273.3 198.924C273.296 196.189 272.137 193.583 270.107 191.75C270.098 191.588 270.067 182.77 270.067 182.77C270.062 178.485 268.358 174.375 265.326 171.344C262.295 168.313 258.186 166.608 253.9 166.604H234.5C230.214 166.608 226.105 168.313 223.074 171.344C220.042 174.375 218.338 178.485 218.333 182.77V191.715C216.265 193.562 215.089 196.204 215.1 198.977C215.112 201.749 216.311 204.383 218.394 206.212V215.103C218.393 222.533 221.594 229.603 227.179 234.503C227.179 234.503 219.618 234.601 218.667 234.773C215.816 232.503 212.278 231.267 208.633 231.27H203.082C208.667 226.369 211.868 219.299 211.867 211.87V182.77C211.862 178.484 210.158 174.375 207.127 171.344C204.095 168.312 199.986 166.608 195.7 166.603H164.983C161.528 166.605 158.261 168.187 156.116 170.896C153.971 173.605 153.183 177.146 153.974 180.511C154.765 183.876 157.05 186.693 160.178 188.163C160.149 188.518 160.133 211.87 160.133 211.87C160.132 219.299 163.334 226.369 168.918 231.27H163.367C161.141 231.268 158.938 231.729 156.9 232.624V197.32C156.9 188.883 153.432 180.817 147.305 175.016C141.18 169.213 132.936 166.188 124.512 166.647C116.086 167.106 108.221 171.011 102.763 177.444L107.694 181.63C112.005 176.553 118.213 173.472 124.863 173.109C131.513 172.748 138.02 175.136 142.855 179.714C147.691 184.295 150.432 190.66 150.433 197.32L149.801 199.438L140.025 187.216C139.411 186.45 138.482 186.002 137.5 186.002C136.519 186.002 135.589 186.45 134.976 187.216C127.226 196.947 115.968 203.246 103.622 204.763L101.933 204.975V197.32C101.933 193.338 102.912 189.414 104.784 185.9L99.0825 182.851C96.7095 187.304 95.4681 192.274 95.4667 197.32V234.509C91.4049 237.568 89.0115 242.353 89 247.437V279.77C89 280.627 89.3407 281.45 89.9469 282.056C90.5532 282.663 91.376 283.004 92.2334 283.004ZM244.2 247.619L240.21 240.971H248.19L244.2 247.619ZM224.8 182.771C224.803 180.199 225.826 177.734 227.644 175.915C229.462 174.097 231.928 173.074 234.5 173.071H253.9C256.472 173.074 258.938 174.097 260.757 175.915C262.574 177.734 263.597 180.199 263.6 182.771V189.238H224.8L224.8 182.771ZM221.567 198.938C221.568 197.152 223.014 195.706 224.8 195.705H263.6C265.385 195.705 266.833 197.152 266.833 198.938C266.833 200.724 265.385 202.171 263.6 202.171H261.531C258.875 202.171 256.228 201.845 253.65 201.201C247.445 199.655 240.955 199.655 234.75 201.201C232.173 201.845 229.526 202.171 226.869 202.171H224.8C223.015 202.17 221.568 200.724 221.567 198.938ZM224.861 215.105V208.638H226.868C228.338 208.637 229.806 208.551 231.267 208.384V211.871H237.733V207.158C242.002 206.295 246.398 206.295 250.666 207.158V211.871H257.133V208.384C258.594 208.551 260.062 208.637 261.531 208.638H263.6H263.66V215.105C263.66 222.036 259.962 228.441 253.96 231.905C247.959 235.371 240.562 235.371 234.56 231.905C228.559 228.441 224.861 222.036 224.861 215.105ZM232.67 240.971L240.967 254.8V276.538H224.8V266.838H234.5V260.371H224.8V247.438C224.801 245.212 224.341 243.01 223.446 240.971H232.67ZM124.566 276.538H111.632V273.305C111.632 272.287 111.153 271.329 110.339 270.718C107.838 268.842 106.273 265.972 106.051 262.853C105.83 259.733 106.972 256.671 109.183 254.459L110.684 252.958L110.277 252.551L111.633 253.001V257.138C111.633 258.362 112.324 259.482 113.419 260.029L124.566 265.602L124.566 276.538ZM115.888 247.604L110.445 245.789L114.148 240.85L121.185 256.682L118.099 255.14V250.671C118.099 249.28 117.209 248.044 115.888 247.604ZM119.841 237.738H135.757L127.799 255.643L119.841 237.738ZM141.45 240.85L145.154 245.788L139.709 247.602L139.711 247.604C138.39 248.043 137.499 249.28 137.499 250.671V255.14L134.414 256.682L141.45 240.85ZM147.199 268.839C146.634 269.543 145.981 270.175 145.259 270.718C144.445 271.328 143.966 272.287 143.966 273.305V276.538H131.033V265.602L142.179 260.029C143.275 259.482 143.966 258.362 143.966 257.138V253.001L145.32 252.549L144.913 252.956L146.417 254.46V254.462C146.693 254.737 146.954 255.029 147.199 255.335L147.199 268.839ZM185.999 275.198L182.918 272.117L185.979 244.561C185.992 244.444 185.999 244.327 185.999 244.211C185.999 244.327 186.007 244.444 186.02 244.561L189.081 272.117L185.999 275.198ZM186.542 242.411C186.19 242.94 186.001 243.562 185.999 244.199C185.998 243.562 185.809 242.94 185.457 242.411L182.34 237.738H189.656L186.542 242.411ZM208.633 237.738C211.205 237.741 213.67 238.764 215.488 240.583C217.306 242.4 218.33 244.866 218.333 247.438V276.538H211.866V250.671H205.399V276.538H193.805L194.752 275.591C195.447 274.897 195.787 273.924 195.679 272.948L192.576 245.02L197.43 237.738L208.633 237.738ZM160.133 177.919C160.135 175.242 162.305 173.072 164.983 173.069H195.699C198.271 173.072 200.737 174.096 202.556 175.913C204.373 177.732 205.396 180.197 205.399 182.77V190.496L201.706 184.339V184.34C201.121 183.366 200.069 182.77 198.933 182.77H164.983C162.305 182.767 160.136 180.597 160.133 177.919ZM166.599 211.869V189.236H197.102L205.399 203.064V211.869C205.399 218.801 201.701 225.206 195.699 228.67C189.697 232.136 182.301 232.136 176.299 228.67C170.297 225.206 166.599 218.801 166.599 211.869ZM153.666 247.436C153.669 244.864 154.692 242.398 156.511 240.581C158.328 238.762 160.794 237.739 163.366 237.736H174.568L179.421 245.017L176.318 272.945H176.319C176.211 273.92 176.552 274.893 177.246 275.588L178.193 276.536H166.599V250.669H160.133V276.536H153.666V247.436ZM150.441 237.736C149.884 238.479 149.392 239.269 148.969 240.096L147.199 237.736H150.441ZM150.433 224.479V231.269H144.942C147.142 229.331 148.998 227.036 150.433 224.479ZM108.458 210.518C110.813 210.045 113.132 209.417 115.404 208.636H121.392V206.171C127.421 203.243 132.851 199.216 137.404 194.297L147.258 206.614V211.87C147.258 218.801 143.56 225.206 137.558 228.67C131.557 232.136 124.16 232.136 118.158 228.67C112.157 225.206 108.458 218.801 108.458 211.87V210.518ZM101.992 211.483V211.87C101.99 219.299 105.192 226.369 110.776 231.27H105.164C104.079 231.271 102.995 231.381 101.931 231.599L101.992 211.483ZM95.4645 247.436C95.463 244.863 96.4836 242.394 98.3038 240.576C100.123 238.755 102.591 237.735 105.164 237.736H108.398L102.578 245.496C101.964 246.315 101.774 247.374 102.065 248.354C102.357 249.335 103.096 250.118 104.056 250.468C103.109 251.51 102.292 252.663 101.625 253.903H95.4643L95.4645 247.436ZM95.4645 260.37H99.6445C99.096 265.788 101.143 271.145 105.164 274.817V276.536H95.4645V260.37ZM176.298 211.87H182.764C182.764 213.655 184.212 215.103 185.998 215.103C187.783 215.103 189.231 213.655 189.231 211.87H195.698C195.698 215.335 193.849 218.537 190.848 220.27C187.847 222.002 184.149 222.002 181.148 220.27C178.147 218.537 176.298 215.335 176.298 211.87ZM179.531 205.403H173.064V198.936H179.531V205.403ZM198.931 205.403H192.464V198.936H198.931V205.403Z" fill="black" />
	<defs>
		<linearGradient gradientUnits="userSpaceOnUse" id="paint0_linear_6820_288138" x1="100" x2="100" y1="16.0039" y2="216.004">
			<stop stop-color="white" stop-opacity="0.2" />
			<stop offset="0.666667" stop-color="white" stop-opacity="0.9" />
			<stop offset="1" stop-color="white" />
		</linearGradient>
	</defs>
</svg>