<svg fill="none" height="43" viewBox="0 0 209 43" width="209" xmlns="http://www.w3.org/2000/svg">
	<path d="M41.2234 29.885L30.1248 18.9916L32.2868 16.8416L41.2234 25.6566L51.4572 15.4083L41.2234 5.23164L17.4406 28.9533L15.2786 26.8033L41.2234 0.931641L55.7813 15.4083L41.2234 29.885Z" fill="#0B63CE" />
	<path d="M28.7555 42.355L1.44141 15.1934L15.9993 0.64502L27.4583 11.9684L25.2962 14.1184L15.9993 4.94502L5.76554 15.1934L28.7555 38.055L37.6921 29.1684L39.8542 31.3184L28.7555 42.355Z" fill="#0B63CE" />
	<path d="M66.3035 15.9155H67.6007V33.4253H76.3931V34.692H66.3035V15.9155Z" fill="#0B63CE" />
	<path d="M79.9246 15.9155H81.2218V34.692H79.9246V15.9155Z" fill="#0B63CE" />
	<path d="M86.0504 15.9155H96.7887V17.1822H87.3477V24.9312H95.7797V26.1979H87.3477V34.7665H86.0504V15.9155Z" fill="#0B63CE" />
	<path d="M100.248 15.9155H111.13V17.1822H101.545V24.6332H110.193V25.8998H101.545V33.4998H111.274V34.7665H100.248V15.9155Z" fill="#0B63CE" />
	<path d="M114.95 15.9155H120.932C122.95 15.9155 124.607 16.5861 125.616 17.6293C126.481 18.5234 126.986 19.8645 126.986 21.2802V21.3547C126.986 24.4096 125.04 26.1979 122.373 26.7194L127.562 34.692H125.977L120.932 26.943H116.175V34.692H114.878V15.9155H114.95ZM120.499 25.7508C123.814 25.7508 125.688 24.0371 125.688 21.4293V21.3547C125.688 18.6724 123.814 17.1077 120.788 17.1077H116.175V25.7508H120.499Z" fill="#0B63CE" />
	<path d="M136.643 15.7666H137.94L145.003 34.6921H143.634L141.688 29.4019H132.823L130.877 34.6921H129.58L136.643 15.7666ZM141.255 28.2097L137.291 17.4058L133.328 28.2097H141.255Z" fill="#0B63CE" />
	<path d="M150.84 27.0175L144.282 15.9155H145.796L151.489 25.7508L157.182 15.9155H158.696L152.138 27.0175V34.692H150.84V27.0175Z" fill="#0B63CE" />
	<path d="M162.588 15.9155H174.047V18.7469H165.615V23.8136H173.11V26.6449H165.615V31.8606H174.191V34.692H162.588V15.9155Z" fill="#0B63CE" />
	<path d="M177.29 15.9155H180.533L185.001 30.0724L189.469 15.9155H192.64L186.37 34.7665H183.56L177.29 15.9155Z" fill="#0B63CE" />
	<path d="M195.235 15.9155H201.072C205.036 15.9155 207.631 18.2998 207.631 22.1744V22.2489C207.631 26.4214 204.676 28.5822 200.928 28.6567H198.334V34.7665H195.307V15.9155H195.235ZM200.856 25.7508C203.162 25.7508 204.532 24.3351 204.532 22.2489C204.532 20.0136 203.162 18.7469 200.856 18.7469H198.262V25.7508H200.856Z" fill="#0B63CE" />
</svg>