<svg fill="none" height="25" viewBox="0 0 111 25" width="111" xmlns="http://www.w3.org/2000/svg">
	<path d="M107.328 19.75C107.328 19.5 107.158 19.3334 106.731 19.3334H106.133V20.8334H106.389V20.1667H106.645L107.072 20.8334H107.328L106.902 20.1667C107.243 20.1667 107.328 20.0834 107.328 19.75ZM106.816 20.0834H106.56V19.5H106.816C106.987 19.5 107.072 19.5 107.072 19.75C107.072 19.9167 106.987 20.0834 106.816 20.0834ZM106.816 18.8334C106.133 18.8334 105.535 19.4167 105.535 20.0834C105.535 20.75 106.133 21.3334 106.816 21.3334C107.499 21.3334 108.097 20.75 108.097 20.0834C108.097 19.4167 107.499 18.8334 106.816 18.8334ZM106.816 21.1667C106.218 21.1667 105.706 20.75 105.706 20.0834C105.706 19.4167 106.133 19 106.816 19C107.414 19 107.926 19.4167 107.926 20.0834C107.755 20.75 107.328 21.1667 106.816 21.1667Z" fill="#0B63CE" />
	<path d="M39.7892 19.9167H34.41V4.83333C34.41 4.58333 34.41 4.25 34.5808 4L34.7515 3.75H32.19V4C32.19 4.25 32.19 4.58333 32.19 4.83333V20.3333C32.19 20.5833 32.19 20.75 32.0192 21L31.8484 21.25H40.5577V19.5833L40.1308 19.75C40.2161 19.9167 40.0454 19.9167 39.7892 19.9167Z" fill="#0B63CE" />
	<path d="M44.9977 20.3334V4.66671C44.9977 4.41671 44.9977 4.08337 45.1685 4.00004L45.2539 3.58337H42.6923L42.8631 3.83337C42.8631 4.08337 43.0339 4.41671 43.0339 4.50004V20C43.0339 20.25 43.0339 20.5834 42.8631 20.6667L42.6923 21H45.2539L45.0831 20.5834C44.9977 20.8334 44.9977 20.5834 44.9977 20.3334Z" fill="#0B63CE" />
	<path d="M48.7546 4C48.7546 4.25 48.9254 4.58333 48.9254 4.66667V20.1667C48.9254 20.4167 48.9254 20.75 48.7546 20.8333L48.5839 21.0833H51.1454L50.9746 20.8333C50.9746 20.5833 50.8039 20.25 50.8039 20.1667V12.9167H55.1585C55.4146 12.9167 55.7562 12.9167 56.0123 13.0833L56.61 13.25V11.5833L56.3539 11.6667C56.0977 11.6667 55.7562 11.8333 55.5 11.8333H50.9746V4.91667H56.0123C56.2685 4.91667 56.61 4.91667 56.8662 5.08333H57.2077V3.75H48.4985L48.7546 4Z" fill="#0B63CE" />
	<path d="M67.0269 11.6667H61.8185V4.91667H67.2831C67.5392 4.91667 67.71 4.91667 67.9661 5.08333L68.3931 5.25V3.75H59.5984L59.6838 4.16667C59.6838 4.33333 59.8546 4.58333 59.8546 4.83333V20.3333C59.8546 20.5833 59.8546 20.9167 59.8546 21.1667V21.4167H68.7346V19.75H68.4785C67.8808 19.9167 67.6246 19.9167 67.6246 19.9167H62.2454V12.9167H67.4538C67.8808 12.9167 68.1369 12.9167 68.3077 12.9167H68.5638V11.4167L68.1369 11.5833C67.71 11.6667 67.4538 11.6667 67.0269 11.6667Z" fill="#0B63CE" />
	<path d="M97.2531 20.3334L91.1908 4.25004C91.1908 4.08337 91.1907 4.00004 91.02 3.83337V3.58337H89.0561V3.83337C89.0561 4.08337 88.8854 4.25004 88.8854 4.25004L82.9938 20.1667C82.9938 20.3334 82.8231 20.3334 82.8231 20.4167C82.6523 20.25 82.5669 20.1667 82.3961 20L75.8215 13.1667C77.5292 13 78.81 12.5 79.5784 11.8334C80.6031 11 81.1154 9.91671 81.1154 8.41671C81.1154 7.41671 80.8592 6.50004 80.2615 5.83337C79.6638 5.16671 79.1515 4.58337 78.2977 4.33337C77.4438 3.91671 76.3338 3.75004 75.2238 3.75004H71.04L71.2107 4.00004C71.2107 4.25004 71.3815 4.58337 71.3815 4.66671V20.1667C71.3815 20.4167 71.3815 20.75 71.2107 20.8334L71.04 21.0834H73.6015L73.5161 20.8334C73.5161 20.5834 73.3454 20.25 73.3454 20.1667V13.5834L79.6638 20.4167C79.92 20.6667 80.0907 20.8334 80.0907 21.0834L80.2615 21.25H82.4815H83.8477H84.1038V21C84.1038 20.75 84.1038 20.4167 84.2746 20.4167L86.0677 15.5H93.0692L94.8623 20.4167C94.8623 20.5834 95.0331 20.8334 95.0331 21V21.25H97.8507L97.5092 20.8334C97.4238 20.5834 97.4238 20.4167 97.2531 20.3334ZM92.6423 14.25H86.7507L89.6538 6.50004L92.6423 14.25ZM73.5161 4.91671H74.7969C76.0777 4.91671 76.9315 5.16671 77.6146 5.58337C78.0415 5.83337 78.2977 6.25004 78.6392 6.83337C78.8954 7.41671 79.0661 7.91671 79.0661 8.50004C79.0661 9.83337 78.4684 10.6667 77.3584 11.4167C76.6754 11.8334 75.8215 12 74.9677 12H73.4307V4.91671H73.5161Z" fill="#0B63CE" />
	<path d="M106.218 3.75004V3.91671C106.218 4.08337 106.048 4.33337 105.962 4.50004L101.864 11.9167L97.9361 4.66671C97.68 4.25004 97.68 4.08337 97.68 4.00004V3.75004H94.8623L95.2892 4.16671C95.46 4.33337 95.5454 4.41671 95.7162 4.75004L100.498 13.3334V20.1667C100.498 20.4167 100.498 20.75 100.327 20.8334L100.156 21.0834H102.718L102.632 20.8334C102.632 20.5834 102.462 20.25 102.462 20.1667V13.3334L107.243 4.58337C107.414 4.41671 107.499 4.16671 107.499 4.00004L107.755 3.58337H106.218V3.75004Z" fill="#0B63CE" />
	<path d="M25.1031 1.25H3.58615C3.15923 1.25 2.90308 1.5 2.90308 1.91667V23.0833C2.90308 23.5 3.15923 23.75 3.58615 23.75H25.1031C25.53 23.75 25.7862 23.5 25.7862 23.0833V1.91667C25.8715 1.5 25.53 1.25 25.1031 1.25ZM9.39231 16.75H5.46461V12.9167H9.39231V16.75ZM9.39231 12.0833H5.46461V8.25H9.39231V12.0833ZM9.39231 7.58333H5.46461V3.75H9.39231V7.58333ZM14.0031 21.25H10.0754V17.4167H14.0031V21.25ZM14.0031 12.0833H10.0754V8.25H14.0031V12.0833ZM14.0031 7.58333H10.0754V3.75H14.0031V7.58333ZM18.7846 21.25H14.8569V17.4167H18.7846V21.25ZM18.7846 16.75H14.8569V12.9167H18.7846V16.75ZM18.7846 7.58333H14.8569V3.75H18.7846V7.58333ZM23.4808 21.25H19.5531V17.4167H23.4808V21.25ZM23.4808 16.75H19.5531V12.9167H23.4808V16.75ZM23.4808 12.0833H19.5531V8.25H23.4808V12.0833Z" fill="#0B63CE" />
</svg>