<svg fill="none" height="80" viewBox="0 0 80 80" width="80" xmlns="http://www.w3.org/2000/svg">
	<rect fill="#E7EFFF" height="80" rx="40" width="80" />
	<g clip-path="url(#clip0_4901_348565)">
		<path clip-rule="evenodd" d="M59.2294 43.4403C59.267 43.2038 59.0716 42.9967 58.8321 42.9995C58.8048 42.9998 58.7774 43 58.75 43C55.0221 43 52 39.9779 52 36.25C52 33.3148 53.8734 30.8172 56.4898 29.8877C56.7161 29.8073 56.8287 29.5453 56.7108 29.3361C56.5852 29.1133 56.4558 28.8928 56.3226 28.675L56.6934 28.739C56.9165 28.7775 57.1003 28.5643 57.0293 28.3493L54.4427 20.5182C54.3696 20.2968 54.0829 20.2398 53.9306 20.4164L51.5453 23.1839C47.7914 20.1008 42.9868 18.25 37.75 18.25C25.7378 18.25 16 27.9878 16 40C16 52.0122 25.7378 61.75 37.75 61.75C48.5915 61.75 57.5803 53.8178 59.2294 43.4403ZM58.75 41.5C61.6495 41.5 64 39.1495 64 36.25C64 33.3505 61.6495 31 58.75 31C55.8505 31 53.5 33.3505 53.5 36.25C53.5 39.1495 55.8505 41.5 58.75 41.5Z" fill="white" fill-rule="evenodd" />
		<path d="M56.3226 28.675L50.5373 27.6763L23.334 56.2866C27.1718 59.6861 32.2198 61.75 37.7499 61.75C48.5914 61.75 57.5803 53.8178 59.2294 43.4404C59.267 43.2038 59.0715 42.9967 58.832 42.9995C58.8047 42.9999 58.7773 43 58.7499 43C55.022 43 51.9999 39.9779 51.9999 36.25C51.9999 33.3149 53.8734 30.8173 56.4897 29.8877C56.716 29.8073 56.8286 29.5453 56.7107 29.3361C56.5851 29.1133 56.4557 28.8929 56.3226 28.675Z" fill="#E7ECF4" />
		<path clip-rule="evenodd" d="M49.9753 23.8567C46.3657 21.1231 41.9397 19.6754 37.4038 19.753C32.7196 19.8331 28.208 21.5349 24.6378 24.5685C21.0677 27.602 18.6598 31.7797 17.8245 36.3896C16.9892 40.9994 17.7782 45.7563 20.0569 49.8497C22.3357 53.9431 25.9633 57.1197 30.3217 58.8383C34.68 60.5569 39.4994 60.7111 43.9588 59.2747C48.4181 57.8383 52.2413 54.9001 54.7772 50.9608C56.2846 48.6192 57.2816 46.0099 57.7292 43.3011C57.7629 43.0972 57.9521 42.9565 58.158 42.9744C58.3531 42.9913 58.5505 43 58.75 43C58.7764 43 58.8027 42.9998 58.829 42.9995C59.0687 42.9968 59.2642 43.2033 59.2263 43.4399C58.7542 46.3872 57.6771 49.2272 56.0385 51.7727C53.3148 56.0038 49.2083 59.1596 44.4187 60.7025C39.629 62.2453 34.4526 62.0796 29.7714 60.2337C25.0903 58.3879 21.1939 54.9759 18.7463 50.5793C16.2988 46.1827 15.4514 41.0735 16.3485 36.1221C17.2457 31.1708 19.8319 26.6837 23.6666 23.4254C27.5012 20.1671 32.3469 18.3392 37.3782 18.2532C42.2817 18.1693 47.0657 19.7451 50.9565 22.7184L53.3626 19.9268C53.8954 19.3086 54.899 19.508 55.1549 20.283L57.7415 28.114C57.9901 28.8667 57.3469 29.6129 56.5658 29.478L48.4389 28.0751C47.6346 27.9362 47.2893 26.9731 47.8222 26.3549L49.9753 23.8567ZM49.4773 26.7321L53.9799 21.5081L56.0819 27.8723L49.4773 26.7321Z" fill="#C9CFDB" fill-rule="evenodd" />
		<path d="M37.7432 40C35.2579 40 33.2432 37.9853 33.2432 35.5C33.2432 33.0147 35.2579 31 37.7432 31C40.2284 31 42.2432 33.0147 42.2432 35.5C42.2432 37.9853 40.2284 40 37.7432 40Z" fill="#134194" />
		<path d="M29.919 46.1893C30.6797 42.0631 33.2878 40 37.7432 40C42.1985 40 44.8062 42.0631 45.5669 46.1892C45.7887 47.3926 45.2698 48.6193 44.4077 48.929C44.2765 48.9761 44.1415 49 44.006 49L31.4799 49C30.5898 49 29.8682 47.9926 29.8682 46.75C29.8682 46.5608 29.8853 46.3724 29.919 46.1893Z" fill="#134194" />
		<path clip-rule="evenodd" d="M58.7499 41.5C61.6494 41.5 63.9999 39.1495 63.9999 36.25C63.9999 33.3505 61.6494 31 58.7499 31C55.8504 31 53.4999 33.3505 53.4999 36.25C53.4999 39.1495 55.8504 41.5 58.7499 41.5ZM58.3989 38.5329C58.2331 38.5038 58.073 38.4556 57.913 38.4074C57.6816 38.3053 57.4965 38.2032 57.2882 38.0245C57.2419 37.9734 57.242 37.8713 57.2651 37.7947L57.589 37.3351C57.6353 37.284 57.7047 37.2585 57.7973 37.3096C57.8551 37.3479 57.9187 37.3925 57.9823 37.4372C58.0459 37.4818 58.1097 37.5266 58.1675 37.5649C58.3526 37.667 58.5145 37.6925 58.6996 37.6925C58.8847 37.6925 59.0236 37.6415 59.1393 37.5649C59.255 37.4883 59.2781 37.3606 59.2781 37.2585C59.2781 37.233 59.2723 37.2011 59.2665 37.1691C59.2607 37.1372 59.255 37.1053 59.255 37.0798L59.1393 36.9521C59.093 36.9011 59.0236 36.8755 58.9542 36.85C58.9195 36.8372 58.879 36.8181 58.8385 36.7989C58.798 36.7798 58.7575 36.7606 58.7228 36.7479L58.1906 36.5181C58.1443 36.4925 58.0923 36.4606 58.0402 36.4287C57.9882 36.3968 57.9361 36.3649 57.8898 36.3394C57.7741 36.2628 57.7047 36.1862 57.6122 36.084C57.5196 35.9819 57.4733 35.8798 57.4271 35.7266C57.3808 35.5734 57.3576 35.4457 57.3576 35.2925C57.3576 35.0883 57.4039 34.9351 57.4502 34.7819C57.5196 34.6032 57.6353 34.4755 57.751 34.3479C57.8498 34.2388 57.9824 34.1671 58.1343 34.0848C58.1602 34.0708 58.1868 34.0563 58.2137 34.0415C58.2702 34.0148 58.3322 33.9943 58.3989 33.9789V33.3777C58.3989 33.3266 58.4683 33.25 58.5146 33.25H58.9773C59.0699 33.25 59.1161 33.3011 59.1161 33.4032L59.1308 33.971C59.2571 33.9963 59.3833 34.0368 59.5095 34.0925C59.6946 34.1947 59.8797 34.2968 60.0185 34.45C60.0648 34.5011 60.0648 34.6032 60.0416 34.6798L59.764 35.0883C59.7177 35.1394 59.6483 35.1649 59.5558 35.1138C59.4401 35.0372 59.3475 34.9862 59.255 34.9351C59.1161 34.884 58.9773 34.833 58.8153 34.8585C58.6765 34.8585 58.5377 34.9096 58.4451 34.9606C58.3526 35.0117 58.3063 35.1138 58.3063 35.267C58.3063 35.3181 58.3294 35.3947 58.3526 35.4202L58.4683 35.5479C58.5145 35.5989 58.584 35.6245 58.6534 35.65C58.6881 35.6628 58.7286 35.6819 58.769 35.7011C58.8095 35.7202 58.85 35.7394 58.8847 35.7521L59.4169 35.9819C59.6714 36.1096 59.8797 36.2372 60.0185 36.4415C60.1573 36.6457 60.2268 36.8755 60.2499 37.2074C60.2499 37.4117 60.2036 37.5649 60.1342 37.7436C60.0648 37.9223 59.9722 38.0755 59.8334 38.1777L59.7987 38.2033C59.6678 38.3003 59.5174 38.4116 59.3475 38.4585C59.2784 38.4839 59.2093 38.5037 59.1393 38.5188V39.0968C59.1393 39.1989 59.093 39.25 59.0005 39.25H58.5377C58.4451 39.25 58.3989 39.1989 58.3989 39.0968V38.5329Z" fill="#134194" fill-rule="evenodd" />
	</g>
	<defs>
		<clipPath id="clip0_4901_348565">
			<rect fill="white" height="48" transform="translate(16 16)" width="48" />
		</clipPath>
	</defs>
</svg>