<svg fill="none" height="173" viewBox="0 0 173 173" width="173" xmlns="http://www.w3.org/2000/svg">
	<circle cx="85.995" cy="85.995" fill="#EBEEF2" r="85.995" />
	<circle cx="85.995" cy="85.995" fill="#19AB4F" r="85.995" transform="rotate(180 85.995 85.995)" />
	<circle cx="86" cy="86" fill="white" r="75" />
	<mask height="72" id="mask0_338_25091" maskUnits="userSpaceOnUse" style="mask-type:alpha" width="71" x="49" y="50">
		<path d="M111.125 58.892H115.562C118.002 58.892 119.987 60.8889 120 63.3295V94.392C120 96.8464 118.015 98.8295 115.562 98.8295H106.688V76.4754C106.688 71.6636 102.792 67.767 97.9772 67.767H66.75V63.3295C66.75 60.8748 68.7347 58.892 71.1875 58.892H96.0098L103.554 51.3206C106.757 48.2836 111.168 50.9739 111.125 54.4545V58.892Z" fill="#6B6C7E" />
		<path d="M64.6439 85.517H86.8314C89.9342 85.517 89.4922 89.9545 86.8314 89.9545H64.6439C61.5368 89.9545 61.5368 85.517 64.6439 85.517Z" fill="#6B6C7E" />
		<path d="M77.9564 94.392H64.6439C61.5368 94.392 61.5368 98.8295 64.6439 98.8295H77.9564C80.6172 98.8295 81.0592 94.392 77.9564 94.392Z" fill="#6B6C7E" />
		<path clip-rule="evenodd" d="M97.8125 72.2045H53.4375C50.9847 72.2045 49 74.1876 49 76.642V107.704C49 110.159 50.9847 112.142 53.4375 112.142H57.875V116.579C57.9313 120.767 62.8932 122.362 65.4456 119.713L72.9902 112.142H97.8125C100.265 112.142 102.25 110.159 102.25 107.704V76.642C102.25 74.1876 100.252 72.2045 97.8125 72.2045ZM97.8125 107.704H53.4375V76.642H97.8125V107.704Z" fill="#6B6C7E" fill-rule="evenodd" />
	</mask>
	<g mask="url(#mask0_338_25091)">
		<rect fill="#3D8CCB" height="71" width="71" x="49" y="50" />
	</g>
</svg>