<svg fill="none" height="173" viewBox="0 0 173 173" width="173" xmlns="http://www.w3.org/2000/svg">
	<circle cx="85.995" cy="85.995" fill="#EBEEF2" r="85.995" />
	<path d="M86.2679 -7.74087e-06C99.8388 -8.33407e-06 113.217 3.21182 125.309 9.37289C137.401 15.5339 147.863 24.4693 155.839 35.4484C163.816 46.4275 169.081 59.1386 171.204 72.5424C173.327 85.9462 172.248 99.6622 168.054 112.569C163.86 125.476 156.672 137.207 147.076 146.803C137.479 156.399 125.749 163.587 112.842 167.781C99.9351 171.975 86.2192 173.054 72.8153 170.931C59.4115 168.808 46.7004 163.543 35.7213 155.566L86.2679 85.995L86.2679 -7.74087e-06Z" fill="#19AB4F" />
	<circle cx="86.2729" cy="86" fill="white" r="75" />
	<mask height="71" id="mask0_338_25082" maskUnits="userSpaceOnUse" style="mask-type:alpha" width="72" x="50" y="50">
		<path d="M109.028 60.3727L85.5234 87.8436L75.5944 77.9008C71.5591 73.8932 65.2911 80.175 69.3265 84.1826L82.639 97.509C83.4433 98.3133 84.5527 98.8125 85.773 98.8125C87.1181 98.8125 88.3245 98.2023 89.1427 97.2594L115.768 66.1414C119.456 61.8426 112.717 56.1154 109.028 60.3727Z" fill="#6B6C7E" />
		<path d="M85.7729 121C66.1925 121 50.2729 105.08 50.2729 85.5C50.2729 65.9195 66.1925 50 85.7729 50C89.5587 50 93.289 50.5963 96.8528 51.7611C102.497 53.6055 99.6263 62.009 94.0933 60.1924C91.4169 59.3187 88.6157 58.875 85.7729 58.875C71.0876 58.875 59.1479 70.8146 59.1479 85.5C59.1479 100.185 71.0876 112.125 85.7729 112.125C100.458 112.125 112.398 100.185 112.398 85.5C112.398 84.4877 112.342 83.5031 112.232 82.5324C111.885 76.5141 120.33 75.9039 121.051 81.5617C121.19 82.8514 121.273 84.1688 121.273 85.5139C121.273 105.08 105.353 121 85.7729 121Z" fill="#6B6C7E" />
	</mask>
	<g mask="url(#mask0_338_25082)">
		<rect fill="#3D8CCB" height="71" width="71" x="50.2729" y="50" />
	</g>
</svg>