<svg fill="none" height="173" viewBox="0 0 173 173" width="173" xmlns="http://www.w3.org/2000/svg">
	<circle cx="85.995" cy="85.995" fill="#EBEEF2" r="85.995" />
	<path d="M86.4044 -7.74087e-06C104.565 -8.53468e-06 122.259 5.74918 136.951 16.4236C151.643 27.098 162.579 42.1495 168.191 59.4211C173.802 76.6926 173.802 95.2974 168.191 112.569C162.579 129.84 151.643 144.892 136.951 155.566C122.259 166.241 104.565 171.99 86.4044 171.99C68.244 171.99 50.5498 166.241 35.8578 155.566C21.1658 144.892 10.2301 129.84 4.61829 112.569C-0.993566 95.2974 -0.993562 76.6926 4.6183 59.4211L86.4044 85.995L86.4044 -7.74087e-06Z" fill="#19AB4F" />
	<circle cx="86.4094" cy="86" fill="white" r="75" />
	<mask height="43" id="mask0_338_25086" maskUnits="userSpaceOnUse" style="mask-type:alpha" width="60" x="56" y="64">
		<path clip-rule="evenodd" d="M87.3887 75.1459C87.3887 80.8554 82.7441 85.5 77.0345 85.5C71.3249 85.5 66.6803 80.8554 66.6803 75.1459C66.6803 69.4363 71.3249 64.7917 77.0345 64.7917C82.7441 64.7917 87.3887 69.4363 87.3887 75.1459ZM81.472 75.1459C81.472 72.6904 79.4899 70.7084 77.0345 70.7084C74.5791 70.7084 72.597 72.6904 72.597 75.1459C72.597 77.6013 74.5791 79.5834 77.0345 79.5834C79.4899 79.5834 81.472 77.6013 81.472 75.1459ZM77.0345 90.6771C70.112 90.6771 56.3262 94.1384 56.3262 101.031V103.25C56.3262 104.877 57.6574 106.208 59.2845 106.208H94.7845C96.4116 106.208 97.7428 104.877 97.7428 103.25V101.031C97.7428 94.1384 83.957 90.6771 77.0345 90.6771ZM77.0345 96.5938C71.7391 96.5938 65.7337 98.5759 63.2487 100.292H90.8203C88.3353 98.5759 82.3299 96.5938 77.0345 96.5938ZM97.8612 90.8546C101.293 93.3396 103.66 96.6529 103.66 101.031V106.208H112.535C114.162 106.208 115.493 104.877 115.493 103.25V101.031C115.493 95.0554 105.139 91.6534 97.8612 90.8546ZM105.139 75.1459C105.139 80.8554 100.494 85.5 94.7845 85.5C93.187 85.5 91.7078 85.1154 90.347 84.4646C92.2108 81.8317 93.3053 78.6071 93.3053 75.1459C93.3053 71.6846 92.2108 68.46 90.347 65.8271C91.7078 65.1763 93.187 64.7917 94.7845 64.7917C100.494 64.7917 105.139 69.4363 105.139 75.1459Z" fill="black" fill-rule="evenodd" />
	</mask>
	<g mask="url(#mask0_338_25086)">
		<rect fill="#3D8CCB" height="71" width="71" x="50.4094" y="50" />
	</g>
</svg>