<svg fill="none" height="173" viewBox="0 0 173 173" width="173" xmlns="http://www.w3.org/2000/svg">
	<circle cx="85.995" cy="85.995" fill="#EBEEF2" r="85.995" />
	<path d="M86 -4.79425e-07C104.16 -1.27324e-06 121.855 5.74918 136.547 16.4236C151.239 27.098 162.174 42.1496 167.786 59.4211L86 85.995L86 -4.79425e-07Z" fill="#19AB4F" />
	<circle cx="86" cy="86" fill="white" r="75" />
	<mask height="71" id="mask0_338_25074" maskUnits="userSpaceOnUse" style="mask-type:alpha" width="71" x="51" y="50">
		<path d="M79.8438 75.1967C77.3893 75.1967 75.4062 77.249 75.4062 79.7728V84.349C75.4062 86.8728 77.3893 88.9252 79.8438 88.9252H84.2812C86.7357 88.9252 88.7188 86.8728 88.7188 84.349V79.7728C88.7188 77.249 86.7357 75.1967 84.2812 75.1967H79.8438Z" fill="black" />
		<path d="M79.8438 93.5152C82.2982 93.5152 84.2812 95.5676 84.2812 98.0914V102.668C84.2812 105.191 82.2982 107.244 79.8438 107.244H75.4062C72.9518 107.244 70.9688 105.191 70.9688 102.668V98.0914C70.9688 95.5676 72.9518 93.5152 75.4062 93.5152H79.8438Z" fill="black" />
		<path d="M97.5938 93.5152C100.048 93.5152 102.031 95.5676 102.031 98.0914V102.668C102.031 105.191 100.048 107.244 97.5938 107.244H93.1562C90.7018 107.244 88.7188 105.191 88.7188 102.668V98.0914C88.7188 95.5676 90.7018 93.5152 93.1562 93.5152H97.5938Z" fill="black" />
		<path clip-rule="evenodd" d="M91.825 51.8305C88.6633 49.3898 84.3367 49.3898 81.175 51.8305L54.55 72.4371C52.3174 74.1705 51 76.8885 51 79.7729V121H122V79.7729C122 76.8885 120.683 74.1705 118.45 72.4371L91.825 51.8305ZM86.5 59.1523L113.125 79.7729V111.834H59.875V79.7729L86.5 59.1523Z" fill="black" fill-rule="evenodd" />
	</mask>
	<g mask="url(#mask0_338_25074)">
		<rect fill="#3D8CCB" height="71" width="71" x="51" y="50" />
	</g>
</svg>