<svg fill="none" height="173" viewBox="0 0 173 173" width="173" xmlns="http://www.w3.org/2000/svg">
	<circle cx="85.995" cy="85.995" fill="#EBEEF2" r="85.995" />
	<path d="M86.1315 0.999992C104.292 0.999991 121.986 6.74918 136.678 17.4236C151.37 28.098 162.306 43.1496 167.918 60.4211C173.529 77.6926 173.529 96.2974 167.918 113.569C162.306 130.84 151.37 145.892 136.678 156.566L86.1315 86.995L86.1315 0.999992Z" fill="#19AB4F" />
	<circle cx="86.1365" cy="87" fill="white" r="75" />
	<mask height="71" id="mask0_338_25078" maskUnits="userSpaceOnUse" style="mask-type:alpha" width="63" x="54" y="51">
		<path clip-rule="evenodd" d="M72.324 90.9375H98.949C101.402 90.9375 103.386 92.9206 103.386 95.375V104.25C103.386 106.704 101.402 108.688 98.949 108.688H72.324C69.8712 108.688 67.8865 106.704 67.8865 104.25V95.375C67.8865 92.9206 69.8712 90.9375 72.324 90.9375ZM98.949 104.25V95.375H72.324V104.25H98.949Z" fill="#6B6C7E" fill-rule="evenodd" />
		<path d="M72.324 86.5H98.949C104.773 86.5 104.773 77.625 98.949 77.625H72.324C66.3611 77.625 66.4998 86.5 72.324 86.5Z" fill="#6B6C7E" />
		<path clip-rule="evenodd" d="M63.449 51H95.2742C99.2177 51 100.947 52.7908 104.968 56.9553L105.224 57.2191L105.384 57.3865C106.134 58.1611 106.962 59.0126 107.893 59.9443C108.907 60.9584 109.822 61.8494 110.645 62.649L110.671 62.6755C114.948 66.8319 116.699 68.5344 116.699 72.4248V113.125C116.699 118.02 112.721 122 107.824 122H63.449C58.5521 122 54.574 118.02 54.574 113.125V59.875C54.574 54.9798 58.5521 51 63.449 51ZM94.5115 68.75V59.875H63.449V113.125H107.824V73.1875H98.949C96.4962 73.1875 94.5115 71.2044 94.5115 68.75Z" fill="#6B6C7E" fill-rule="evenodd" />
	</mask>
	<g mask="url(#mask0_338_25078)">
		<rect fill="#3D8CCB" height="71" width="71" x="50.1365" y="51" />
	</g>
</svg>