<svg fill="none" height="80" viewBox="0 0 80 80" width="80" xmlns="http://www.w3.org/2000/svg">
	<rect fill="#E7EFFF" height="80" rx="40" width="80" />
	<mask height="30" id="mask0_4798_72655" maskUnits="userSpaceOnUse" style="mask-type:alpha" width="24" x="28" y="25">
		<path clip-rule="evenodd" d="M49.0018 38.125V45.625L50.9368 47.56C51.8818 48.505 51.2068 50.125 49.8718 50.125H30.1168C28.7818 50.125 28.1218 48.505 29.0668 47.56L31.0018 45.625V38.125C31.0018 33.505 33.4468 29.665 37.7518 28.645V27.625C37.7518 26.38 38.7568 25.375 40.0018 25.375C41.2468 25.375 42.2518 26.38 42.2518 27.625V28.645C46.5418 29.665 49.0018 33.52 49.0018 38.125ZM43.0018 51.625C43.0018 53.275 41.6518 54.625 40.0018 54.625C38.3368 54.625 37.0018 53.275 37.0018 51.625H43.0018Z" fill="black" fill-rule="evenodd" />
	</mask>
	<g mask="url(#mask0_4798_72655)">
		<rect fill="#0B5FFF" height="36" width="36" x="22" y="22" />
	</g>
</svg>