<svg fill="none" height="80" viewBox="0 0 80 80" width="80" xmlns="http://www.w3.org/2000/svg">
	<rect fill="#D1ECFA" height="80" rx="40" width="80" />
	<mask height="30" id="mask0_3308_27610" maskUnits="userSpaceOnUse" style="mask-type:alpha" width="30" x="25" y="25">
		<path clip-rule="evenodd" d="M25 40C25 31.72 31.72 25 40 25C48.28 25 55 31.72 55 40C55 48.28 48.28 55 40 55C31.72 55 25 48.28 25 40ZM42.115 50.005V49.135C44.725 48.64 46.78 47.14 46.81 44.395C46.81 40.615 43.57 39.31 40.54 38.53C37.51 37.75 36.535 36.925 36.535 35.665C36.535 34.225 37.885 33.205 40.135 33.205C42.025 33.205 42.97 33.94 43.315 35.08C43.465 35.62 43.915 36.01 44.47 36.01H44.86C45.745 36.01 46.375 35.14 46.075 34.315C45.505 32.725 44.2 31.435 42.13 30.925V29.995C42.13 28.9 41.23 28 40.135 28H40.12C39.025 28 38.125 28.9 38.125 29.995V30.895C35.545 31.45 33.46 33.13 33.46 35.71C33.46 38.785 36.01 40.315 39.73 41.215C43.075 42.01 43.735 43.18 43.735 44.425C43.735 45.34 43.075 46.81 40.135 46.81C37.945 46.81 36.805 46.03 36.37 44.905C36.16 44.38 35.71 44.005 35.155 44.005H34.795C33.895 44.005 33.25 44.92 33.595 45.745C34.345 47.59 36.115 48.685 38.11 49.105V50.005C38.11 51.1 39.01 52 40.105 52H40.12C41.215 52 42.115 51.1 42.115 50.005Z" fill="black" fill-rule="evenodd" />
	</mask>
	<g mask="url(#mask0_3308_27610)">
		<rect fill="#1AA0E8" height="36" width="36" x="22" y="22" />
	</g>
</svg>