<svg fill="none" height="48" viewBox="0 0 48 48" width="48" xmlns="http://www.w3.org/2000/svg">
	<circle cx="24" cy="24" fill="#D1ECFA" r="24" />
	<circle cx="24" cy="24" r="20" stroke="white" />
	<mask height="18" id="mask0_221_58002" maskUnits="userSpaceOnUse" style="mask-type:alpha" width="16" x="16" y="15">
		<path clip-rule="evenodd" d="M27.3333 16.5V17.3333H20.6667V16.5C20.6667 16.0416 20.2917 15.6666 19.8333 15.6666C19.375 15.6666 19 16.0416 19 16.5V17.3333H18.1667C17.2417 17.3333 16.5083 18.0833 16.5083 19L16.5 30.6666C16.5 31.5833 17.2417 32.3333 18.1667 32.3333H29.8333C30.75 32.3333 31.5 31.5833 31.5 30.6666V19C31.5 18.0833 30.75 17.3333 29.8333 17.3333H29V16.5C29 16.0416 28.625 15.6666 28.1667 15.6666C27.7083 15.6666 27.3333 16.0416 27.3333 16.5ZM27.3333 24.8333H24.8333C24.375 24.8333 24 25.2083 24 25.6666V28.1666C24 28.625 24.375 29 24.8333 29H27.3333C27.7917 29 28.1667 28.625 28.1667 28.1666V25.6666C28.1667 25.2083 27.7917 24.8333 27.3333 24.8333ZM19 30.6666H29C29.4583 30.6666 29.8333 30.2916 29.8333 29.8333V21.5H18.1667V29.8333C18.1667 30.2916 18.5417 30.6666 19 30.6666Z" fill="black" fill-rule="evenodd" />
	</mask>
	<g mask="url(#mask0_221_58002)">
		<rect fill="#1AA0E8" height="20" width="20" x="14" y="14" />
	</g>
</svg>