<svg fill="none" height="48" viewBox="0 0 48 48" width="48" xmlns="http://www.w3.org/2000/svg">
	<circle cx="24" cy="24" fill="#DCD7E9" r="24" />
	<circle cx="24" cy="24" r="20" stroke="white" />
	<mask height="12" id="mask0_221_58077" maskUnits="userSpaceOnUse" style="mask-type:alpha" width="20" x="14" y="18">
		<path clip-rule="evenodd" d="M23.1583 20.6666C23.1583 22.05 22.05 23.1666 20.6667 23.1666C19.2833 23.1666 18.1667 22.05 18.1667 20.6666C18.1667 19.2833 19.2833 18.1666 20.6667 18.1666C22.05 18.1666 23.1583 19.2833 23.1583 20.6666ZM29.825 20.6666C29.825 22.05 28.7167 23.1666 27.3333 23.1666C25.95 23.1666 24.8333 22.05 24.8333 20.6666C24.8333 19.2833 25.95 18.1666 27.3333 18.1666C28.7167 18.1666 29.825 19.2833 29.825 20.6666ZM20.6667 24.8333C18.725 24.8333 14.8333 25.8083 14.8333 27.75V29C14.8333 29.4583 15.2083 29.8333 15.6667 29.8333H25.6667C26.125 29.8333 26.5 29.4583 26.5 29V27.75C26.5 25.8083 22.6083 24.8333 20.6667 24.8333ZM26.525 24.875C26.8167 24.85 27.0917 24.8333 27.3333 24.8333C29.275 24.8333 33.1667 25.8083 33.1667 27.75V29C33.1667 29.4583 32.7917 29.8333 32.3333 29.8333H28.0167C28.1083 29.575 28.1667 29.2916 28.1667 29V27.75C28.1667 26.525 27.5083 25.6 26.5583 24.9083C26.5558 24.9058 26.5533 24.9025 26.5505 24.8989C26.5442 24.8906 26.5366 24.8808 26.525 24.875Z" fill="black" fill-rule="evenodd" />
	</mask>
	<g mask="url(#mask0_221_58077)">
		<rect fill="#503690" height="20" width="20" x="14" y="14" />
	</g>
</svg>