<svg fill="none" height="51" viewBox="0 0 215 51" width="215" xmlns="http://www.w3.org/2000/svg">
	<g filter="url(#filter0_d_74_25220)">
		<path d="M44.2235 29.885L33.1248 18.9916L35.2869 16.8416L44.2235 25.6566L54.4572 15.4083L44.2235 5.23164L20.4407 28.9533L18.2786 26.8033L44.2235 0.931641L58.7814 15.4083L44.2235 29.885Z" fill="#0B63CE" />
		<path d="M31.7555 42.355L4.44141 15.1934L18.9993 0.64502L30.4583 11.9684L28.2962 14.1184L18.9993 4.94502L8.76554 15.1934L31.7555 38.055L40.6921 29.1684L42.8542 31.3184L31.7555 42.355Z" fill="#0B63CE" />
		<path d="M69.3035 15.9099H70.6007V32.7516H79.3931V33.9699H69.3035V15.9099Z" fill="#0B63CE" />
		<path d="M82.9245 15.9099H84.2217V33.9699H82.9245V15.9099Z" fill="#0B63CE" />
		<path d="M89.0504 15.9099H99.7886V17.1282H90.3476V24.5816H98.7797V25.7999H90.3476V34.0416H89.0504V15.9099Z" fill="#0B63CE" />
		<path d="M103.248 15.9099H114.13V17.1282H104.545V24.2949H113.193V25.5132H104.545V32.8232H114.274V34.0416H103.248V15.9099Z" fill="#0B63CE" />
		<path d="M117.95 15.9099H123.932C125.95 15.9099 127.607 16.5549 128.616 17.5582C129.481 18.4182 129.986 19.7082 129.986 21.0699V21.1416C129.986 24.0799 128.04 25.7999 125.373 26.3016L130.562 33.9699H128.977L123.932 26.5166H119.175V33.9699H117.878V15.9099H117.95ZM123.499 25.3699C126.814 25.3699 128.688 23.7216 128.688 21.2132V21.1416C128.688 18.5616 126.814 17.0566 123.788 17.0566H119.175V25.3699H123.499Z" fill="#0B63CE" />
		<path d="M139.643 15.7666H140.94L148.003 33.9699H146.633L144.688 28.8816H135.823L133.877 33.9699H132.58L139.643 15.7666ZM144.255 27.7349L140.291 17.3433L136.328 27.7349H144.255Z" fill="#0B63CE" />
		<path d="M153.84 26.5882L147.282 15.9099H148.796L154.489 25.3699L160.182 15.9099H161.696L155.138 26.5882V33.9699H153.84V26.5882Z" fill="#0B63CE" />
		<path d="M165.588 15.9099H177.047V18.6332H168.615V23.5066H176.11V26.2299H168.615V31.2466H177.191V33.9699H165.588V15.9099Z" fill="#0B63CE" />
		<path d="M180.29 15.9099H183.533L188.001 29.5266L192.469 15.9099H195.64L189.37 34.0416H186.56L180.29 15.9099Z" fill="#0B63CE" />
		<path d="M198.235 15.9099H204.072C208.036 15.9099 210.631 18.2032 210.631 21.9299V22.0016C210.631 26.0149 207.676 28.0932 203.928 28.1649H201.334V34.0416H198.307V15.9099H198.235ZM203.856 25.3699C206.162 25.3699 207.532 24.0082 207.532 22.0016C207.532 19.8516 206.162 18.6332 203.856 18.6332H201.262V25.3699H203.856Z" fill="#0B63CE" />
	</g>
	<defs>
		<filter color-interpolation-filters="sRGB" filterUnits="userSpaceOnUse" height="51" id="filter0_d_74_25220" width="217" x="-1" y="0">
			<feFlood flood-opacity="0" result="BackgroundImageFix" />
			<feColorMatrix in="SourceAlpha" result="hardAlpha" type="matrix" values="0 0 0 0 0 0 0 0 0 0 0 0 0 0 0 0 0 0 127 0" />
			<feOffset dy="4" />
			<feGaussianBlur stdDeviation="2" />
			<feComposite in2="hardAlpha" operator="out" />
			<feColorMatrix type="matrix" values="0 0 0 0 0 0 0 0 0 0 0 0 0 0 0 0 0 0 0.25 0" />
			<feBlend in2="BackgroundImageFix" mode="normal" result="effect1_dropShadow_74_25220" />
			<feBlend in="SourceGraphic" in2="effect1_dropShadow_74_25220" mode="normal" result="shape" />
		</filter>
	</defs>
</svg>