<svg fill="none" height="48" viewBox="0 0 48 48" width="48" xmlns="http://www.w3.org/2000/svg">
	<circle cx="24" cy="24" fill="#D1EEDC" r="24" />
	<circle cx="24" cy="24" r="20" stroke="white" />
	<mask height="18" id="mask0_221_58062" maskUnits="userSpaceOnUse" style="mask-type:alpha" width="18" x="15" y="15">
		<path clip-rule="evenodd" d="M15.6667 24C15.6667 19.4 19.4 15.6666 24 15.6666C28.6 15.6666 32.3334 19.4 32.3334 24C32.3334 28.6 28.6 32.3333 24 32.3333C19.4 32.3333 15.6667 28.6 15.6667 24ZM25.175 29.5583V29.075C26.625 28.8 27.7667 27.9666 27.7834 26.4416C27.7834 24.3416 25.9834 23.6166 24.3 23.1833C22.6167 22.75 22.075 22.2916 22.075 21.5916C22.075 20.7916 22.825 20.225 24.075 20.225C25.125 20.225 25.65 20.6333 25.8417 21.2666C25.925 21.5666 26.175 21.7833 26.4834 21.7833H26.7C27.1917 21.7833 27.5417 21.3 27.375 20.8416C27.0584 19.9583 26.3334 19.2416 25.1834 18.9583V18.4416C25.1834 17.8333 24.6834 17.3333 24.075 17.3333H24.0667C23.4584 17.3333 22.9584 17.8333 22.9584 18.4416V18.9416C21.525 19.25 20.3667 20.1833 20.3667 21.6166C20.3667 23.325 21.7834 24.175 23.85 24.675C25.7084 25.1166 26.075 25.7666 26.075 26.4583C26.075 26.9666 25.7084 27.7833 24.075 27.7833C22.8584 27.7833 22.225 27.35 21.9834 26.725C21.8667 26.4333 21.6167 26.225 21.3084 26.225H21.1084C20.6084 26.225 20.25 26.7333 20.4417 27.1916C20.8584 28.2166 21.8417 28.825 22.95 29.0583V29.5583C22.95 30.1666 23.45 30.6666 24.0584 30.6666H24.0667C24.675 30.6666 25.175 30.1666 25.175 29.5583Z" fill="black" fill-rule="evenodd" />
	</mask>
	<g mask="url(#mask0_221_58062)">
		<rect fill="#19AB4F" height="20" width="20" x="14" y="14" />
	</g>
</svg>