<svg fill="none" height="48" viewBox="0 0 48 48" width="48" xmlns="http://www.w3.org/2000/svg">
	<circle cx="24" cy="24" fill="#D9F2F3" r="24" />
	<circle cx="24" cy="24" r="20" stroke="white" />
	<mask height="18" id="mask0_221_58025" maskUnits="userSpaceOnUse" style="mask-type:alpha" width="18" x="15" y="15">
		<path clip-rule="evenodd" d="M15.6667 24C15.6667 19.4166 19.4167 15.6666 24 15.6666C28.5834 15.6666 32.3334 19.4166 32.3334 24C32.3334 28.5833 28.5834 32.3333 24 32.3333C19.4167 32.3333 15.6667 28.5833 15.6667 24ZM23.5584 25.075L26.9584 27.1666C27.2584 27.35 27.65 27.2583 27.8334 26.9666C28.0167 26.6666 27.9167 26.275 27.6167 26.0916L24.4167 24.1666V20.4583C24.4167 20.1166 24.1334 19.8333 23.7917 19.8333C23.45 19.8333 23.1667 20.1166 23.1584 20.4583V24.3666C23.1584 24.6583 23.3084 24.925 23.5584 25.075Z" fill="black" fill-rule="evenodd" />
	</mask>
	<g mask="url(#mask0_221_58025)">
		<rect fill="#42BFC2" height="20" width="20" x="14" y="14" />
	</g>
</svg>